<svg width="222" height="223" viewBox="0 0 222 223" fill="none" xmlns="http://www.w3.org/2000/svg">
<g opacity="0.3">
<mask id="path-1-inside-1_2454_920" fill="white">
<path d="M221.959 121.571C219.706 145.677 209.648 168.389 193.313 186.26C176.978 204.13 155.258 216.182 131.451 220.586C107.643 224.99 83.0492 221.505 61.4026 210.66C39.756 199.816 22.2393 182.204 11.5121 160.499C0.784894 138.793 -2.56678 114.181 1.96596 90.3977C6.49871 66.6146 18.6683 44.9601 36.6269 28.7221C54.5855 12.4842 77.3522 2.54976 101.47 0.42724C125.588 -1.69528 149.74 4.11006 170.259 16.9618L167.511 21.3491C147.947 9.09561 124.919 3.56048 101.924 5.5842C78.9286 7.60792 57.2216 17.08 40.0989 32.5621C22.9762 48.0442 11.3731 68.6908 7.05133 91.3669C2.72956 114.043 5.92522 137.51 16.1531 158.205C26.381 178.9 43.0824 195.692 63.7214 206.032C84.3605 216.372 107.81 219.694 130.509 215.495C153.208 211.297 173.917 199.806 189.492 182.767C205.067 165.728 214.656 144.073 216.805 121.089L221.959 121.571Z"/>
</mask>
<path d="M221.959 121.571C219.706 145.677 209.648 168.389 193.313 186.26C176.978 204.13 155.258 216.182 131.451 220.586C107.643 224.99 83.0492 221.505 61.4026 210.66C39.756 199.816 22.2393 182.204 11.5121 160.499C0.784894 138.793 -2.56678 114.181 1.96596 90.3977C6.49871 66.6146 18.6683 44.9601 36.6269 28.7221C54.5855 12.4842 77.3522 2.54976 101.47 0.42724C125.588 -1.69528 149.74 4.11006 170.259 16.9618L167.511 21.3491C147.947 9.09561 124.919 3.56048 101.924 5.5842C78.9286 7.60792 57.2216 17.08 40.0989 32.5621C22.9762 48.0442 11.3731 68.6908 7.05133 91.3669C2.72956 114.043 5.92522 137.51 16.1531 158.205C26.381 178.9 43.0824 195.692 63.7214 206.032C84.3605 216.372 107.81 219.694 130.509 215.495C153.208 211.297 173.917 199.806 189.492 182.767C205.067 165.728 214.656 144.073 216.805 121.089L221.959 121.571Z" stroke="url(#paint0_linear_2454_920)" stroke-width="26" mask="url(#path-1-inside-1_2454_920)"/>
</g>
<defs>
<linearGradient id="paint0_linear_2454_920" x1="42.2677" y1="198.488" x2="180.173" y2="23.9525" gradientUnits="userSpaceOnUse">
<stop stop-color="#E27797"/>
<stop offset="1" stop-color="#7CACE7" stop-opacity="0"/>
</linearGradient>
</defs>
</svg>
