<svg width="28" height="28" viewBox="0 0 28 28" fill="none" xmlns="http://www.w3.org/2000/svg">
<circle cx="14" cy="14" r="14" fill="white"/>
<path d="M14.019 25.0556C10.9456 25.0151 8.20066 23.9624 5.85085 21.8746C5.66015 21.7049 5.67452 21.5618 5.75616 21.3659C7.08323 18.1836 9.41345 16.2239 12.8409 15.7086C16.9605 15.0889 20.8497 17.3856 22.408 21.2477C22.5386 21.5697 22.5014 21.7571 22.2329 21.9883C19.889 24.0068 17.1774 25.0282 14.019 25.0556Z" fill="#ADC0E8"/>
<path d="M14.1033 4.70882C16.9396 4.72318 19.1556 6.97031 19.1373 9.81431C19.119 12.5891 16.8469 14.8036 14.0353 14.7872C11.2649 14.7716 9.05032 12.4951 9.0673 9.68175C9.08428 6.92916 11.3492 4.6938 14.1033 4.70882Z" fill="#ADC0E8"/>
</svg>
